<svg xmlns="http://www.w3.org/2000/svg" width="93.469" height="101.698" viewBox="0 0 93.469 101.698">
  <g id="LOGO_MEK_MAR_Mesa_de_trabajo_1-02" data-name="LOGO_MEK MAR_Mesa de trabajo 1-02" transform="translate(-39 -37.56)">
    <path id="Trazado_8483" data-name="Trazado 8483" d="M39.05,47.7V38.61H41.8l1.648,6.2,1.634-6.2h2.75V47.7h-1.7V40.544l-1.8,7.155H42.553l-1.8-7.155V47.7Z" transform="translate(-0.043 -0.894)" fill="#e97747"/>
    <path id="Trazado_8484" data-name="Trazado 8484" d="M110.45,47.7V38.61h6.739v1.543h-4.9v2.009h4.564v1.531h-4.568v2.474h5.079V47.7Z" transform="translate(-60.839 -0.894)" fill="#e97747"/>
    <path id="Trazado_8485" data-name="Trazado 8485" d="M165.787,47.7V40.153h-2.7V38.61h7.223v1.543h-2.691V47.7Z" transform="translate(-105.661 -0.894)" fill="#e97747"/>
    <path id="Trazado_8486" data-name="Trazado 8486" d="M216.26,47.7h-2l-.795-2.064h-3.633l-.75,2.064H207.14l3.543-9.089h1.931Zm-3.38-3.6-1.252-3.373L210.4,44.1Z" transform="translate(-143.17 -0.894)" fill="#e97747"/>
    <path id="Trazado_8487" data-name="Trazado 8487" d="M275.44,48.125V39.11h1.834v7.483h4.564v1.531Z" transform="translate(-201.326 -1.32)" fill="#e97747"/>
    <path id="Trazado_8488" data-name="Trazado 8488" d="M327.25,38.61h1.836v4.923a10.385,10.385,0,0,0,.067,1.521,1.475,1.475,0,0,0,.561.891,1.964,1.964,0,0,0,1.212.337,1.846,1.846,0,0,0,1.179-.319,1.258,1.258,0,0,0,.477-.784,10.267,10.267,0,0,0,.08-1.543V38.61H334.5v4.773a12.343,12.343,0,0,1-.148,2.314,2.574,2.574,0,0,1-.548,1.139,2.777,2.777,0,0,1-1.071.743,4.644,4.644,0,0,1-1.748.276,5.1,5.1,0,0,1-1.975-.3,2.822,2.822,0,0,1-1.063-.781,2.5,2.5,0,0,1-.514-1.007,11.043,11.043,0,0,1-.18-2.306Z" transform="translate(-245.442 -0.894)" fill="#e97747"/>
    <path id="Trazado_8489" data-name="Trazado 8489" d="M389.12,47.7V38.61h3.861a6.613,6.613,0,0,1,2.118.245,2.088,2.088,0,0,1,1.056.87,2.623,2.623,0,0,1,.4,1.433,2.424,2.424,0,0,1-.6,1.689,2.853,2.853,0,0,1-1.8.841,4.278,4.278,0,0,1,.983.763,10.292,10.292,0,0,1,1.04,1.475l1.109,1.773H395.1l-1.326-1.978a12.716,12.716,0,0,0-.967-1.337,1.409,1.409,0,0,0-.552-.37,3.021,3.021,0,0,0-.924-.1h-.371V47.7Zm1.836-5.245h1.357a7.017,7.017,0,0,0,1.648-.111.986.986,0,0,0,.515-.385,1.188,1.188,0,0,0,.186-.682,1.09,1.09,0,0,0-.245-.743,1.118,1.118,0,0,0-.691-.356q-.223-.031-1.337-.031h-1.432Z" transform="translate(-298.124 -0.894)" fill="#e97747"/>
    <path id="Trazado_8490" data-name="Trazado 8490" d="M453.239,43.5V41.966h3.955v3.621a5.006,5.006,0,0,1-1.671.983,6.1,6.1,0,0,1-2.216.425,4.985,4.985,0,0,1-2.488-.594,3.809,3.809,0,0,1-1.592-1.717,5.513,5.513,0,0,1-.533-2.421,5.233,5.233,0,0,1,.594-2.525,4.031,4.031,0,0,1,1.742-1.693,4.774,4.774,0,0,1,2.177-.446,4.337,4.337,0,0,1,2.643.71,3.209,3.209,0,0,1,1.225,1.963l-1.822.34a1.931,1.931,0,0,0-.723-1.062,2.182,2.182,0,0,0-1.323-.388,2.488,2.488,0,0,0-1.913.762,3.211,3.211,0,0,0-.71,2.263,3.56,3.56,0,0,0,.719,2.427,2.4,2.4,0,0,0,1.891.809,3.147,3.147,0,0,0,1.157-.226,3.989,3.989,0,0,0,1-.549V43.5Z" transform="translate(-348.85 -0.034)" fill="#e97747"/>
    <path id="Trazado_8491" data-name="Trazado 8491" d="M517,47.7V38.61h1.836V47.7Z" transform="translate(-407.013 -0.894)" fill="#e97747"/>
    <path id="Trazado_8492" data-name="Trazado 8492" d="M545.1,43.463l1.782.564a4.005,4.005,0,0,1-1.362,2.21,4.272,4.272,0,0,1-5.385-.514,4.769,4.769,0,0,1-1.166-3.383,4.97,4.97,0,0,1,1.172-3.524,4.017,4.017,0,0,1,3.082-1.256,3.78,3.78,0,0,1,2.71.986,3.6,3.6,0,0,1,.93,1.674l-1.825.435a1.876,1.876,0,0,0-1.916-1.525,2.069,2.069,0,0,0-1.634.725,3.562,3.562,0,0,0-.628,2.349,3.819,3.819,0,0,0,.619,2.456,2.015,2.015,0,0,0,1.613.731,1.834,1.834,0,0,0,1.258-.465A2.755,2.755,0,0,0,545.1,43.463Z" transform="translate(-425.72)" fill="#e97747"/>
    <path id="Trazado_8493" data-name="Trazado 8493" d="M605.727,47.7h-1.993l-.793-2.064h-3.634l-.743,2.064H596.61l3.54-9.089h1.941Zm-3.376-3.6L601.1,40.731,599.871,44.1Z" transform="translate(-474.8 -0.894)" fill="#e97747"/>
    <path id="Trazado_8494" data-name="Trazado 8494" d="M47.25,550.243V536.36h4.194l2.525,9.469,2.49-9.469h4.2v13.883H58.054V539.314L55.3,550.243H52.6l-2.746-10.929v10.929Z" transform="translate(-7.025 -424.724)" fill="#e97747"/>
    <path id="Trazado_8495" data-name="Trazado 8495" d="M156.28,550.243V536.36h10.295v2.348h-7.491v3.077h6.97v2.339h-6.97v3.78h7.755v2.339Z" transform="translate(-99.863 -424.724)" fill="#e97747"/>
    <path id="Trazado_8496" data-name="Trazado 8496" d="M243.64,550.243V536.36h2.8v6.165l5.663-6.165h3.765l-5.228,5.407,5.511,8.475h-3.622l-3.817-6.511-2.272,2.32v4.2Z" transform="translate(-174.249 -424.724)" fill="#e97747"/>
    <path id="Trazado_8497" data-name="Trazado 8497" d="M335.53,589.658V587h5.228v2.658Z" transform="translate(-252.493 -467.843)" fill="#e97747"/>
    <path id="Trazado_8498" data-name="Trazado 8498" d="M380.93,550.243V536.36h4.2l2.525,9.469,2.491-9.469h4.2v13.883h-2.609V539.314l-2.756,10.929h-2.692l-2.747-10.929v10.929Z" transform="translate(-291.15 -424.724)" fill="#e97747"/>
    <path id="Trazado_8499" data-name="Trazado 8499" d="M494.417,550.243h-3.05l-1.212-3.154h-5.548l-1.146,3.154h-2.97L485.9,536.36h2.97Zm-5.162-5.495-1.913-5.152-1.876,5.153Z" transform="translate(-375.925 -424.724)" fill="#e97747"/>
    <path id="Trazado_8500" data-name="Trazado 8500" d="M584.34,550.243V536.36h5.9a10.111,10.111,0,0,1,3.233.373,3.2,3.2,0,0,1,1.616,1.337,4.01,4.01,0,0,1,.606,2.188,3.7,3.7,0,0,1-.919,2.581,4.418,4.418,0,0,1-2.746,1.283,6.587,6.587,0,0,1,1.5,1.164,15.521,15.521,0,0,1,1.595,2.254l1.695,2.709h-3.352l-2.026-3.027a19.814,19.814,0,0,0-1.478-2.042,2.173,2.173,0,0,0-.844-.578,4.627,4.627,0,0,0-1.411-.156h-.567v5.792Zm2.8-8.019h2.079a10.766,10.766,0,0,0,2.525-.171,1.506,1.506,0,0,0,.787-.594,1.814,1.814,0,0,0,.284-1.04,1.662,1.662,0,0,0-.374-1.132,1.714,1.714,0,0,0-1.056-.545q-.34-.048-2.045-.047h-2.2Z" transform="translate(-464.352 -424.724)" fill="#e97747"/>
    <path id="Trazado_8501" data-name="Trazado 8501" d="M245.26,666.893l1.735-.169a2.12,2.12,0,0,0,.637,1.283,1.915,1.915,0,0,0,1.292.41,1.981,1.981,0,0,0,1.3-.364,1.087,1.087,0,0,0,.438-.852.8.8,0,0,0-.184-.533,1.473,1.473,0,0,0-.642-.383q-.315-.11-1.429-.386a4.808,4.808,0,0,1-2.012-.873,2.3,2.3,0,0,1-.814-1.782,2.269,2.269,0,0,1,.383-1.263,2.389,2.389,0,0,1,1.1-.891,4.422,4.422,0,0,1,1.739-.307,3.732,3.732,0,0,1,2.5.729,2.577,2.577,0,0,1,.882,1.947l-1.782.079a1.514,1.514,0,0,0-.492-.98,1.794,1.794,0,0,0-1.129-.3,2.077,2.077,0,0,0-1.218.319.648.648,0,0,0-.284.55.68.68,0,0,0,.266.536,4.716,4.716,0,0,0,1.634.594,9.22,9.22,0,0,1,1.931.636,2.477,2.477,0,0,1,.976.891,2.633,2.633,0,0,1,.353,1.408,2.6,2.6,0,0,1-.422,1.421,2.537,2.537,0,0,1-1.188.986,5.022,5.022,0,0,1-1.922.322,3.827,3.827,0,0,1-2.574-.775A3.391,3.391,0,0,1,245.26,666.893Z" transform="translate(-175.628 -530.666)" fill="#e97747"/>
    <path id="Trazado_8502" data-name="Trazado 8502" d="M303.65,711.583V709.89h1.693v1.693Z" transform="translate(-225.347 -572.483)" fill="#e97747"/>
    <path id="Trazado_8503" data-name="Trazado 8503" d="M326.86,670.643V661.81h3.754a6.431,6.431,0,0,1,2.057.238,2.027,2.027,0,0,1,1.028.846,2.547,2.547,0,0,1,.386,1.392,2.354,2.354,0,0,1-.585,1.643,2.8,2.8,0,0,1-1.746.817,4.172,4.172,0,0,1,.955.743,10.051,10.051,0,0,1,1.016,1.435l1.078,1.723h-2.13l-1.289-1.922a12.369,12.369,0,0,0-.939-1.3,1.383,1.383,0,0,0-.536-.367,2.928,2.928,0,0,0-.9-.1h-.361v3.688Zm1.782-5.1h1.319a6.8,6.8,0,0,0,1.6-.108.962.962,0,0,0,.5-.373,1.151,1.151,0,0,0,.18-.662,1.056,1.056,0,0,0-.238-.72,1.1,1.1,0,0,0-.671-.348q-.218-.03-1.3-.03h-1.392Z" transform="translate(-245.11 -531.543)" fill="#e97747"/>
    <path id="Trazado_8504" data-name="Trazado 8504" d="M386.75,711.583V709.89h1.693v1.693Z" transform="translate(-296.106 -572.483)" fill="#e97747"/>
    <path id="Trazado_8505" data-name="Trazado 8505" d="M410.24,671.052V662.29h1.782v7.277h4.436v1.485Z" transform="translate(-316.107 -531.952)" fill="#e97747"/>
    <path id="Trazado_8506" data-name="Trazado 8506" d="M460.6,711.583V709.89h1.693v1.693Z" transform="translate(-358.988 -572.483)" fill="#e97747"/>
    <rect id="Rectángulo_2991" data-name="Rectángulo 2991" width="27.029" height="9.059" transform="translate(105.384 129.998)" fill="#e97747"/>
    <rect id="Rectángulo_2992" data-name="Rectángulo 2992" width="27.029" height="9.059" transform="translate(40.188 129.998)" fill="#e97747"/>
    <rect id="Rectángulo_2993" data-name="Rectángulo 2993" width="6.089" height="58.81" transform="translate(109.839 49.952)" fill="#e97747"/>
    <rect id="Rectángulo_2994" data-name="Rectángulo 2994" width="6.089" height="58.81" transform="translate(117.264 49.952)" fill="#e97747"/>
    <path id="Trazado_8507" data-name="Trazado 8507" d="M39,135l6.089,9.429v47.3H39Z" transform="translate(0 -82.969)" fill="#e97747"/>
    <path id="Trazado_8508" data-name="Trazado 8508" d="M92,219.08l6.089,9.781v34.463H92Z" transform="translate(-45.129 -154.563)" fill="#e97747"/>
    <path id="Trazado_8509" data-name="Trazado 8509" d="M143,300.05l6.237,9.865v22.354h-6.089Z" transform="translate(-88.555 -223.508)" fill="#e97747"/>
    <rect id="Rectángulo_2995" data-name="Rectángulo 2995" width="6.089" height="58.81" transform="translate(124.69 49.952)" fill="#e97747"/>
    <path id="Trazado_8510" data-name="Trazado 8510" d="M317.821,135v10.4l-26.732,46.335H285Z" transform="translate(-209.467 -82.969)" fill="#e97747"/>
    <path id="Trazado_8511" data-name="Trazado 8511" d="M362.95,226v10.247L343.94,269.216H338Z" transform="translate(-254.596 -160.455)" fill="#e97747"/>
    <path id="Trazado_8512" data-name="Trazado 8512" d="M406.376,315v10.544L394.94,345H389Z" transform="translate(-298.022 -236.238)" fill="#e97747"/>
    <path id="Trazado_8513" data-name="Trazado 8513" d="M75.385,176.542l2.822-5.049L45.386,121H39Z" transform="translate(0 -71.048)" fill="#e97747"/>
    <path id="Trazado_8514" data-name="Trazado 8514" d="M125.929,170.008l2.822-4.9L100.237,121H94Z" transform="translate(-46.832 -71.048)" fill="#e97747"/>
    <path id="Trazado_8515" data-name="Trazado 8515" d="M174.771,163.622l3.119-5.346L153.089,121H147Z" transform="translate(-91.961 -71.048)" fill="#e97747"/>
  </g>
</svg>
